<mxfile host="app.diagrams.net" modified="2023-09-02T20:49:44.549Z" agent="Mozilla/5.0 (Windows NT 10.0; Win64; x64) AppleWebKit/537.36 (KHTML, like Gecko) Chrome/116.0.0.0 Safari/537.36" etag="pRKsjyP4uNE4GEkE-ur5" version="21.7.2" type="github">
  <diagram name="Page-1" id="OngwLe8sOwqoVYJdVEMt">
    <mxGraphModel dx="1816" dy="1057" grid="1" gridSize="10" guides="1" tooltips="1" connect="1" arrows="1" fold="1" page="1" pageScale="1" pageWidth="850" pageHeight="1100" math="0" shadow="0">
      <root>
        <mxCell id="0" />
        <mxCell id="1" parent="0" />
        <mxCell id="KiK5k0P70B_GlQx1L4lq-11" value="" style="rounded=0;whiteSpace=wrap;html=1;" vertex="1" parent="1">
          <mxGeometry x="10" y="40" width="720" height="540" as="geometry" />
        </mxCell>
        <mxCell id="KiK5k0P70B_GlQx1L4lq-12" value="" style="rounded=0;whiteSpace=wrap;html=1;" vertex="1" parent="1">
          <mxGeometry x="830" y="40" width="720" height="540" as="geometry" />
        </mxCell>
        <mxCell id="KiK5k0P70B_GlQx1L4lq-13" value="" style="rounded=0;whiteSpace=wrap;html=1;" vertex="1" parent="1">
          <mxGeometry x="10" y="660" width="720" height="540" as="geometry" />
        </mxCell>
        <mxCell id="KiK5k0P70B_GlQx1L4lq-14" value="" style="rounded=0;whiteSpace=wrap;html=1;" vertex="1" parent="1">
          <mxGeometry x="830" y="660" width="720" height="540" as="geometry" />
        </mxCell>
      </root>
    </mxGraphModel>
  </diagram>
</mxfile>
